<mxfile host="app.diagrams.net" modified="2020-09-16T09:43:45.969Z" agent="5.0 (Windows)" etag="mfbG48g0jvI4SVC97Oxv" version="13.7.1" type="github">
  <diagram id="C5RBs43oDa-KdzZeNtuy" name="Page-1">
    <mxGraphModel dx="1422" dy="791" grid="1" gridSize="10" guides="1" tooltips="1" connect="1" arrows="1" fold="1" page="1" pageScale="1" pageWidth="827" pageHeight="1169" math="0" shadow="0">
      <root>
        <mxCell id="WIyWlLk6GJQsqaUBKTNV-0" />
        <mxCell id="WIyWlLk6GJQsqaUBKTNV-1" parent="WIyWlLk6GJQsqaUBKTNV-0" />
        <mxCell id="5i1VgPBV40TFD0aXEKWm-20" value="" style="edgeStyle=orthogonalEdgeStyle;rounded=0;orthogonalLoop=1;jettySize=auto;html=1;" edge="1" parent="WIyWlLk6GJQsqaUBKTNV-1" source="5i1VgPBV40TFD0aXEKWm-0" target="5i1VgPBV40TFD0aXEKWm-19">
          <mxGeometry relative="1" as="geometry" />
        </mxCell>
        <mxCell id="5i1VgPBV40TFD0aXEKWm-0" value="Start" style="rounded=1;whiteSpace=wrap;html=1;" vertex="1" parent="WIyWlLk6GJQsqaUBKTNV-1">
          <mxGeometry x="354" y="10" width="120" height="60" as="geometry" />
        </mxCell>
        <mxCell id="5i1VgPBV40TFD0aXEKWm-6" value="" style="edgeStyle=orthogonalEdgeStyle;rounded=0;orthogonalLoop=1;jettySize=auto;html=1;" edge="1" parent="WIyWlLk6GJQsqaUBKTNV-1" source="5i1VgPBV40TFD0aXEKWm-3" target="5i1VgPBV40TFD0aXEKWm-5">
          <mxGeometry relative="1" as="geometry" />
        </mxCell>
        <mxCell id="5i1VgPBV40TFD0aXEKWm-9" value="" style="edgeStyle=orthogonalEdgeStyle;rounded=0;orthogonalLoop=1;jettySize=auto;html=1;" edge="1" parent="WIyWlLk6GJQsqaUBKTNV-1" source="5i1VgPBV40TFD0aXEKWm-3" target="5i1VgPBV40TFD0aXEKWm-8">
          <mxGeometry relative="1" as="geometry" />
        </mxCell>
        <mxCell id="5i1VgPBV40TFD0aXEKWm-3" value="If computer says correct" style="rhombus;whiteSpace=wrap;html=1;rounded=1;" vertex="1" parent="WIyWlLk6GJQsqaUBKTNV-1">
          <mxGeometry x="351" y="310" width="126" height="110" as="geometry" />
        </mxCell>
        <mxCell id="5i1VgPBV40TFD0aXEKWm-5" value="End" style="whiteSpace=wrap;html=1;rounded=1;" vertex="1" parent="WIyWlLk6GJQsqaUBKTNV-1">
          <mxGeometry x="130" y="335" width="120" height="60" as="geometry" />
        </mxCell>
        <mxCell id="5i1VgPBV40TFD0aXEKWm-7" value="True" style="text;html=1;align=center;verticalAlign=middle;resizable=0;points=[];autosize=1;" vertex="1" parent="WIyWlLk6GJQsqaUBKTNV-1">
          <mxGeometry x="290" y="335" width="40" height="20" as="geometry" />
        </mxCell>
        <mxCell id="5i1VgPBV40TFD0aXEKWm-23" value="" style="edgeStyle=orthogonalEdgeStyle;rounded=0;orthogonalLoop=1;jettySize=auto;html=1;" edge="1" parent="WIyWlLk6GJQsqaUBKTNV-1" source="5i1VgPBV40TFD0aXEKWm-8">
          <mxGeometry relative="1" as="geometry">
            <mxPoint x="570" y="525" as="targetPoint" />
          </mxGeometry>
        </mxCell>
        <mxCell id="5i1VgPBV40TFD0aXEKWm-27" value="" style="edgeStyle=orthogonalEdgeStyle;rounded=0;orthogonalLoop=1;jettySize=auto;html=1;" edge="1" parent="WIyWlLk6GJQsqaUBKTNV-1" source="5i1VgPBV40TFD0aXEKWm-8">
          <mxGeometry relative="1" as="geometry">
            <mxPoint x="414" y="705" as="targetPoint" />
          </mxGeometry>
        </mxCell>
        <mxCell id="5i1VgPBV40TFD0aXEKWm-8" value="If computer returns number is to high" style="rhombus;whiteSpace=wrap;html=1;rounded=1;" vertex="1" parent="WIyWlLk6GJQsqaUBKTNV-1">
          <mxGeometry x="346" y="460" width="136" height="130" as="geometry" />
        </mxCell>
        <mxCell id="5i1VgPBV40TFD0aXEKWm-10" value="false" style="text;html=1;align=center;verticalAlign=middle;resizable=0;points=[];autosize=1;" vertex="1" parent="WIyWlLk6GJQsqaUBKTNV-1">
          <mxGeometry x="340" y="430" width="40" height="20" as="geometry" />
        </mxCell>
        <mxCell id="5i1VgPBV40TFD0aXEKWm-18" value="" style="edgeStyle=orthogonalEdgeStyle;rounded=0;orthogonalLoop=1;jettySize=auto;html=1;" edge="1" parent="WIyWlLk6GJQsqaUBKTNV-1" source="5i1VgPBV40TFD0aXEKWm-16" target="5i1VgPBV40TFD0aXEKWm-3">
          <mxGeometry relative="1" as="geometry" />
        </mxCell>
        <mxCell id="5i1VgPBV40TFD0aXEKWm-16" value="Insert calculated number" style="shape=parallelogram;perimeter=parallelogramPerimeter;whiteSpace=wrap;html=1;fixedSize=1;" vertex="1" parent="WIyWlLk6GJQsqaUBKTNV-1">
          <mxGeometry x="354" y="200" width="120" height="60" as="geometry" />
        </mxCell>
        <mxCell id="5i1VgPBV40TFD0aXEKWm-21" value="" style="edgeStyle=orthogonalEdgeStyle;rounded=0;orthogonalLoop=1;jettySize=auto;html=1;" edge="1" parent="WIyWlLk6GJQsqaUBKTNV-1" source="5i1VgPBV40TFD0aXEKWm-19" target="5i1VgPBV40TFD0aXEKWm-16">
          <mxGeometry relative="1" as="geometry" />
        </mxCell>
        <mxCell id="5i1VgPBV40TFD0aXEKWm-19" value="&amp;nbsp;Calculate: N / 2 &lt;br&gt;(N = highest number)" style="rounded=0;whiteSpace=wrap;html=1;" vertex="1" parent="WIyWlLk6GJQsqaUBKTNV-1">
          <mxGeometry x="354" y="110" width="120" height="60" as="geometry" />
        </mxCell>
        <mxCell id="5i1VgPBV40TFD0aXEKWm-24" value="Devide your number by 2 and (round up if necessary)" style="rounded=0;whiteSpace=wrap;html=1;" vertex="1" parent="WIyWlLk6GJQsqaUBKTNV-1">
          <mxGeometry x="570" y="495" width="120" height="60" as="geometry" />
        </mxCell>
        <mxCell id="5i1VgPBV40TFD0aXEKWm-25" value="" style="endArrow=classic;html=1;exitX=0.5;exitY=0;exitDx=0;exitDy=0;entryX=1;entryY=0.5;entryDx=0;entryDy=0;" edge="1" parent="WIyWlLk6GJQsqaUBKTNV-1" source="5i1VgPBV40TFD0aXEKWm-24" target="5i1VgPBV40TFD0aXEKWm-16">
          <mxGeometry width="50" height="50" relative="1" as="geometry">
            <mxPoint x="390" y="430" as="sourcePoint" />
            <mxPoint x="440" y="380" as="targetPoint" />
            <Array as="points">
              <mxPoint x="630" y="230" />
              <mxPoint x="620" y="230" />
            </Array>
          </mxGeometry>
        </mxCell>
        <mxCell id="5i1VgPBV40TFD0aXEKWm-30" style="edgeStyle=orthogonalEdgeStyle;rounded=0;orthogonalLoop=1;jettySize=auto;html=1;exitX=1;exitY=0.5;exitDx=0;exitDy=0;entryX=1;entryY=0.5;entryDx=0;entryDy=0;" edge="1" parent="WIyWlLk6GJQsqaUBKTNV-1" source="5i1VgPBV40TFD0aXEKWm-28" target="5i1VgPBV40TFD0aXEKWm-16">
          <mxGeometry relative="1" as="geometry">
            <mxPoint x="780" y="230" as="targetPoint" />
            <Array as="points">
              <mxPoint x="770" y="740" />
              <mxPoint x="770" y="230" />
            </Array>
          </mxGeometry>
        </mxCell>
        <mxCell id="5i1VgPBV40TFD0aXEKWm-28" value="(N + your number) devided by 2 (round up if necessary)" style="rounded=0;whiteSpace=wrap;html=1;" vertex="1" parent="WIyWlLk6GJQsqaUBKTNV-1">
          <mxGeometry x="354" y="710" width="120" height="60" as="geometry" />
        </mxCell>
        <mxCell id="5i1VgPBV40TFD0aXEKWm-31" value="&lt;h1&gt;Heading&lt;/h1&gt;&lt;p&gt;Lorem ipsum dolor sit amet, consectetur adipisicing elit, sed do eiusmod tempor incididunt ut labore et dolore magna aliqua.&lt;/p&gt;" style="text;html=1;strokeColor=none;fillColor=none;spacing=5;spacingTop=-20;whiteSpace=wrap;overflow=hidden;rounded=0;" vertex="1" parent="WIyWlLk6GJQsqaUBKTNV-1">
          <mxGeometry x="320" y="160" width="190" height="120" as="geometry" />
        </mxCell>
        <mxCell id="5i1VgPBV40TFD0aXEKWm-32" value="var highest range = 100&lt;br&gt;var lowest rannge = 1&lt;br&gt;var final result = 0&lt;br&gt;var ans = 35&lt;br&gt;&lt;br&gt;algo (int) : hr + lr -1 /2&amp;nbsp; = final result&lt;br&gt;&lt;br&gt;while (ans != fr) [&lt;br&gt;if (ans = final result) {&lt;br&gt;output &quot;gewonnen&quot;&lt;br&gt;break&lt;br&gt;} else if ( ans &amp;lt; fr) {&lt;br&gt;&amp;nbsp;hr = fr -1 &lt;br&gt;&amp;nbsp;run algo &lt;br&gt;output &quot;too high&quot;&lt;br&gt;} else {&lt;br&gt;lr = fr + 1&lt;br&gt;output &quot;too low&quot;&lt;br&gt;}]" style="text;html=1;strokeColor=none;fillColor=none;spacing=5;spacingTop=-20;whiteSpace=wrap;overflow=hidden;rounded=0;" vertex="1" parent="WIyWlLk6GJQsqaUBKTNV-1">
          <mxGeometry x="30" y="30" width="190" height="290" as="geometry" />
        </mxCell>
      </root>
    </mxGraphModel>
  </diagram>
</mxfile>
